# xmcd CD database file
#
# Track frame offsets:
#	150
#	23669
#	39680
#	61117
#	83445
#	102987
#	119810
#	140181
#	159815
#	183499
#	205035
#	231309
#	258712
#
# Disc length: 3983 seconds
#
# Revision: 0
# Processed by: cddbd v1.4PL0 Copyright (c) Steve Scherf et al.
# Submitted via: CDex 1.50beta10
#
DISCID=b10f8d0d
DTITLE=Lino Patruno - Romano Mussolini - Hello Satch!
DYEAR=2002
DGENRE=Jazz
TTITLE0=Struttin' with some barbecue
TTITLE1=basin street blues
TTITLE2=indiana
TTITLE3=tin roof blues
TTITLE4=royal garden blues
TTITLE5=do you know what it means new orleans
TTITLE6=when the saints go machin' in
TTITLE7=hello satch!
TTITLE8=all of me
TTITLE9=i can't give you anithing but love, baby
TTITLE10=rosetta
TTITLE11=big reinion blues
TTITLE12=i've found a new baby
EXTD=YEAR: 2002
EXTT0=
EXTT1=
EXTT2=
EXTT3=
EXTT4=
EXTT5=
EXTT6=
EXTT7=
EXTT8=
EXTT9=
EXTT10=
EXTT11=
EXTT12=
PLAYORDER=
